<?xml version="1.0" standalone="no"?>
<!DOCTYPE svg PUBLIC "-//W3C//DTD SVG 20010904//EN"
 "http://www.w3.org/TR/2001/REC-SVG-20010904/DTD/svg10.dtd">
<svg version="1.0" xmlns="http://www.w3.org/2000/svg"
 width="1000.000000pt" height="1000.000000pt" viewBox="0 0 1000.000000 1000.000000"
 preserveAspectRatio="xMidYMid meet">
<metadata>
Created by potrace 1.11, written by Peter Selinger 2001-2013
</metadata>
<g transform="translate(0.000000,1000.000000) scale(0.100000,-0.100000)"
fill="#000000" stroke="none">
<path d="M3712 8002 c-5 -1 -8 -2691 -3 -2783 1 -14 22 -16 164 -15 l162 1 2
629 c1 345 4 634 6 640 5 13 1320 17 1333 3 5 -4 8 -292 9 -640 l0 -632 145
-1 c80 -1 154 0 165 3 20 4 20 11 20 1398 l0 1395 -25 1 c-72 3 -286 4 -295 2
-8 -3 -11 -193 -10 -594 0 -325 -3 -598 -6 -607 -6 -16 -53 -17 -667 -17 -364
1 -664 3 -667 7 -3 3 -6 276 -6 607 0 466 -2 601 -12 602 -29 2 -308 4 -315 1z"/>
<path d="M3174 4731 c-2 -2 -4 -26 -4 -53 l0 -48 1580 0 1580 0 0 53 0 52
-1576 0 c-867 0 -1578 -2 -1580 -4z"/>
<path d="M3517 4242 c-13 -3 -17 -14 -17 -45 -3 -807 0 -2739 4 -2745 7 -12
295 -11 302 0 7 11 6 1884 0 1917 -3 12 -8 44 -11 70 -3 25 -7 60 -10 76 -8
49 -15 107 -21 160 -3 28 -8 53 -11 58 -2 4 0 7 6 7 15 0 25 -22 92 -202 33
-90 75 -188 93 -218 18 -30 121 -199 228 -375 107 -176 266 -437 353 -580 87
-143 159 -262 161 -263 1 -2 24 -4 51 -5 45 -1 49 1 74 39 14 21 40 64 57 94
16 30 85 150 152 265 68 116 134 230 148 255 46 84 175 305 198 342 13 21 24
42 24 47 0 5 6 16 13 23 6 7 25 38 41 68 17 30 42 75 58 99 15 25 28 49 28 54
0 5 6 23 14 40 7 18 31 77 52 132 21 55 43 103 47 106 5 3 7 8 6 10 -1 2 3 19
9 37 15 43 31 33 27 -16 -8 -87 -17 -170 -22 -207 -9 -65 -15 -2035 -6 -2037
4 0 79 -2 166 -3 l157 -2 0 91 c3 1396 -2 2701 -9 2705 -15 10 -241 5 -251 -5
-8 -8 -188 -311 -255 -429 -13 -22 -67 -114 -120 -205 -54 -91 -120 -203 -147
-250 -28 -47 -58 -98 -68 -115 -10 -16 -31 -52 -46 -80 -15 -27 -42 -74 -60
-103 -19 -29 -34 -54 -34 -56 0 -2 -25 -45 -55 -95 -30 -51 -55 -94 -55 -96 0
-2 -5 -16 -12 -32 -6 -15 -12 -30 -12 -33 -5 -20 -41 -107 -48 -114 -4 -6 -8
-15 -8 -22 0 -7 -9 -34 -20 -60 -21 -47 -21 -48 -33 -23 -7 13 -19 40 -27 59
-7 19 -23 58 -35 85 -12 28 -30 70 -41 95 -10 25 -34 71 -54 103 -19 32 -40
68 -47 80 -7 12 -17 29 -23 37 -10 14 -58 93 -230 375 -34 55 -66 109 -73 119
-12 20 -132 215 -154 252 -149 245 -316 514 -321 515 -19 3 -211 4 -225 1z"/>
</g>
</svg>
